# xmcd CD database file
#
# Track frame offsets:
#	150
#	17645
#	35573
#	50921
#	69008
#	87398
#	102797
#	120675
#	137417
#	157636
#	174627
#	193033
#	209908
#	228883
#	244338
#	264290
#	281876
#	300740
#
# Disc length: 4246 seconds
#
# Revision: 0
# Processed by: cddbd v1.5.2PL0 Copyright (c) Steve Scherf et al.
# Submitted via: CDex 1.51
#
DISCID=fa109412
DTITLE=Various Artist - SF364
DYEAR=1900
DGENRE=Blues
TTITLE0=Pink - Just Like Fire
TTITLE1=Calvin Harris Ft rihanna - This Is What You Came For
TTITLE2=Galantis - No Money
TTITLE3=Beyounce - Hold Up
TTITLE4=Gnash Ft Ollvia O'Brien - I Hate U I Love U
TTITLE5=Matt Simons - Catch and Release (deepend remix)
TTITLE6=Pet Shop Boys - The Pop Kids
TTITLE7=Sigala Ft John Newman and Nile Rodgers - Give Me Your Love
TTITLE8=Rihanna - Kiss It Better
TTITLE9=James Bay - Best Fake Smile
TTITLE10=Bring Me The Horizon - Follow You
TTITLE11=The Chainsmokers - Don't Let Me Down
TTITLE12=Benny and Chris Brown - Paradise
TTITLE13=Alessie Cara - Wild Things
TTITLE14=Desiigner - Panda
TTITLE15=Jennifer Lopez - Ain't Your Mama
TTITLE16=Blink 182 - Bored To Death
TTITLE17=Sing Street - Drive It Like You Stole It
EXTD=
EXTT0=
EXTT1=
EXTT2=
EXTT3=
EXTT4=
EXTT5=
EXTT6=
EXTT7=
EXTT8=
EXTT9=
EXTT10=
EXTT11=
EXTT12=
EXTT13=
EXTT14=
EXTT15=
EXTT16=
EXTT17=
PLAYORDER=
